<svg width="568px" height="153px" viewBox="0 0 568 153" version="1.1" xmlns="http://www.w3.org/2000/svg" xmlns:xlink="http://www.w3.org/1999/xlink">
    <g stroke="none" stroke-width="1" fill="none" fill-rule="evenodd">
        <g id="logo-four-quant-group" transform="translate(0.000000, -57.000000)">
            <path d="M49.92,177 L49.92,149.64 L0.42,149.64 L0.42,131.46 L42.18,62.7 L74.58,62.7 L74.58,129.48 L87.72,129.48 L87.72,149.64 L74.58,149.64 L74.58,177 L49.92,177 Z M25.8,129.48 L49.92,129.48 L49.92,110.94 C49.92,103.56 50.64,92.58 51,85.38 L50.28,85.38 C47.4,91.68 44.16,98.16 40.92,104.64 L25.8,129.48 Z M153.6,157.56 C169.62,157.56 179.7,142.8 179.7,117.78 C179.7,94.38 169.62,80.34 153.6,80.34 C137.58,80.34 127.5,94.38 127.5,117.78 C127.5,142.8 137.58,157.56 153.6,157.56 Z M192.3,209.76 C167.46,209.76 149.82,196.26 141.54,177.9 C116.52,172.68 100.32,150.9 100.32,117.78 C100.32,79.44 121.92,57.48 153.6,57.48 C185.28,57.48 206.88,79.62 206.88,117.78 C206.88,149.28 192.3,170.52 169.62,177 C175.02,185.28 185.46,188.52 195.36,188.52 C200.4,188.52 204.9,187.62 208.32,186.54 L213,205.8 C208.68,207.96 201.3,209.76 192.3,209.76 Z" id="logo-four-quant-first"></path>
            <path d="M251.42,179.16 C232.52,179.16 224.24,166.38 224.24,144.06 L224.24,88.62 L244.94,88.62 L244.94,141.36 C244.94,155.94 249.08,161.34 258.62,161.34 C266.36,161.34 271.58,157.74 278.24,149.1 L278.24,88.62 L298.94,88.62 L298.94,177 L282.02,177 L280.4,164.04 L279.86,164.04 C272.12,173.22 263.48,179.16 251.42,179.16 Z M346.64,179.16 C331.16,179.16 320.54,168.72 320.54,153.24 C320.54,134.34 336.2,124.44 372.56,120.48 C372.2,111.12 368.42,103.2 356.36,103.2 C347.72,103.2 339.44,107.16 331.52,111.84 L323.96,97.98 C333.68,91.86 346.28,86.46 360.32,86.46 C382.28,86.46 393.26,99.96 393.26,124.62 L393.26,177 L376.16,177 L374.72,167.28 L374,167.28 C366.08,173.94 357.08,179.16 346.64,179.16 Z M353.3,162.96 C360.5,162.96 365.9,159.36 372.56,153.24 L372.56,133.44 C348.44,136.5 340.52,142.8 340.52,151.62 C340.52,159.54 345.92,162.96 353.3,162.96 Z M418.1,177 L418.1,88.62 L435.2,88.62 L436.64,100.5 L437.36,100.5 C445.28,92.76 454.28,86.46 466.34,86.46 C485.24,86.46 493.52,99.24 493.52,121.56 L493.52,177 L472.82,177 L472.82,124.26 C472.82,109.68 468.68,104.28 458.96,104.28 C451.22,104.28 446.18,108.06 438.8,115.26 L438.8,177 L418.1,177 Z M550.04,179.16 C529.52,179.16 521.96,166.2 521.96,147.12 L521.96,105 L509.36,105 L509.36,89.52 L523.04,88.62 L525.56,64.5 L542.84,64.5 L542.84,88.62 L565.34,88.62 L565.34,105 L542.84,105 L542.84,147.12 C542.84,157.56 546.8,162.6 555.26,162.6 C558.32,162.6 561.92,161.7 564.44,160.62 L568.04,175.92 C563.18,177.54 557.06,179.16 550.04,179.16 Z" id="logo-four-uant"></path>
        </g>
    </g>
</svg>
